<?xml version="1.0" encoding="utf-8"?>
<!-- Generator: Adobe Illustrator 17.0.0, SVG Export Plug-In . SVG Version: 6.00 Build 0)  -->
<!DOCTYPE svg PUBLIC "-//W3C//DTD SVG 1.1//EN" "http://www.w3.org/Graphics/SVG/1.1/DTD/svg11.dtd">
<svg version="1.1" id="Livello_1" xmlns="http://www.w3.org/2000/svg" xmlns:xlink="http://www.w3.org/1999/xlink" x="0px" y="0px"
	 width="181.5px" height="28.8px" viewBox="0 0 181.5 28.8" enable-background="new 0 0 181.5 28.8" xml:space="preserve">
<g>
	<g>
		<path d="M-331.4-123.5v55.1h8.3v2.6h-30.4v-2.6h8.3V-180h-8.3v-2.6h30.4v2.6h-8.3v53.9h40.7V-180h-8.3v-2.6h30.4v2.6h-8.3v111.5
			h8.3v2.6h-30.4v-2.6h8.3v-55.1H-331.4z"/>
		<path d="M-196.2-68.4c4.4-2,8-5.1,10.8-9.4c2.3-3.4,4.1-7.4,5.4-12c1.5-5.2,2.2-10.2,2.1-14.7h4.6l-3.7,38.8h-70.7v-2.6h8V-180h-8
			v-2.6h29.6v2.6h-7.7v111.5H-196.2z"/>
	</g>
	<g>
		<path stroke="#000000" stroke-miterlimit="10" d="M-352.3-51.4h2.7v8.1h3.3v-8.1h2.7v18.8h-2.7V-41h-3.3v8.4h-2.7V-51.4z"/>
		<path stroke="#000000" stroke-miterlimit="10" d="M-324.1-40.6l-3.7-10.9h2.9l2.2,7.5h0.1l2.2-7.5h2.9l-3.7,10.9v8h-2.7V-40.6z"/>
		<path stroke="#000000" stroke-miterlimit="10" d="M-301.9-51.4h4c0.7,0,1.4,0.1,2,0.3c0.6,0.2,1.1,0.5,1.5,1
			c0.5,0.5,0.8,1.1,1,1.7c0.2,0.7,0.3,1.6,0.3,2.7c0,0.8,0,1.5-0.1,2.1c-0.1,0.6-0.3,1.1-0.6,1.7c-0.4,0.6-0.9,1.1-1.5,1.4
			c-0.6,0.3-1.4,0.5-2.4,0.5h-1.4v7.4h-2.7V-51.4z M-299.2-42.5h1.3c0.5,0,1-0.1,1.3-0.2c0.3-0.2,0.5-0.4,0.7-0.6
			c0.1-0.3,0.2-0.6,0.3-1c0-0.4,0-0.8,0-1.3c0-0.4,0-0.9,0-1.3c0-0.4-0.1-0.7-0.2-1c-0.1-0.3-0.3-0.5-0.6-0.7
			c-0.3-0.2-0.7-0.3-1.2-0.3h-1.4V-42.5z"/>
		<path stroke="#000000" stroke-miterlimit="10" d="M-276.7-51.4h8v2.5h-5.3v5.5h4.7v2.5h-4.7v5.5h5.3v2.7h-8V-51.4z"/>
		<path stroke="#000000" stroke-miterlimit="10" d="M-252.5-51.4h2.7v16.1h5.3v2.7h-8V-51.4z"/>
		<path stroke="#000000" stroke-miterlimit="10" d="M-228.3-51.4h2.7v18.8h-2.7V-51.4z"/>
		<path stroke="#000000" stroke-miterlimit="10" d="M-199.8-46h-2.7v-0.6c0-0.6-0.1-1.2-0.4-1.6c-0.3-0.4-0.8-0.7-1.5-0.7
			c-0.4,0-0.7,0.1-0.9,0.2c-0.2,0.1-0.4,0.3-0.6,0.5c-0.1,0.2-0.2,0.5-0.3,0.8c-0.1,0.3-0.1,0.6-0.1,0.9c0,0.4,0,0.7,0,0.9
			c0,0.3,0.1,0.5,0.2,0.7c0.1,0.2,0.3,0.3,0.5,0.5c0.2,0.1,0.5,0.3,0.8,0.4l2.1,0.8c0.6,0.2,1.1,0.5,1.5,0.8
			c0.4,0.3,0.7,0.7,0.9,1.1c0.2,0.4,0.3,0.9,0.4,1.4c0.1,0.5,0.1,1.2,0.1,1.8c0,0.8-0.1,1.5-0.2,2.2c-0.2,0.7-0.4,1.3-0.8,1.7
			c-0.4,0.5-0.8,0.9-1.4,1.2c-0.6,0.3-1.3,0.4-2.2,0.4c-0.7,0-1.3-0.1-1.8-0.3c-0.6-0.2-1-0.5-1.5-0.9c-0.4-0.4-0.7-0.9-1-1.4
			c-0.2-0.5-0.4-1.1-0.4-1.8v-1h2.7v0.8c0,0.5,0.1,0.9,0.4,1.3c0.3,0.4,0.8,0.6,1.5,0.6c0.5,0,0.8-0.1,1.1-0.2
			c0.3-0.1,0.4-0.3,0.6-0.6c0.1-0.2,0.2-0.5,0.3-0.9c0-0.4,0.1-0.7,0.1-1.2c0-0.5,0-0.9-0.1-1.2c0-0.3-0.1-0.6-0.2-0.8
			c-0.1-0.2-0.3-0.4-0.5-0.5c-0.2-0.1-0.5-0.3-0.8-0.4l-1.9-0.8c-1.2-0.5-1.9-1.1-2.3-1.9c-0.4-0.8-0.6-1.8-0.6-2.9
			c0-0.7,0.1-1.4,0.3-2c0.2-0.6,0.5-1.2,0.9-1.6c0.4-0.5,0.9-0.8,1.4-1.1c0.6-0.3,1.3-0.4,2-0.4c0.7,0,1.3,0.1,1.8,0.4
			c0.6,0.2,1,0.6,1.4,1c0.4,0.4,0.7,0.9,0.9,1.4c0.2,0.5,0.3,1,0.3,1.5V-46z"/>
		<path stroke="#000000" stroke-miterlimit="10" d="M-181.6-48.9h-3.1v-2.5h8.9v2.5h-3.1v16.3h-2.7V-48.9z"/>
	</g>
</g>
<g>
	<path d="M3,28.2H0V0.6h3v12.3h8.4V0.6h3v27.6h-3V15.5H3V28.2z"/>
	<path d="M32.1,28.2h-3v-7.8c-3.8-0.4-5.8-2.4-5.8-5.9V0.6h3v13.9c0,2.3,1.4,3.4,4.2,3.4c2.8,0,4.2-1.1,4.2-3.4V0.6h3v13.9
		c0,3.5-1.9,5.4-5.7,5.9V28.2z"/>
	<path d="M49.5,28.2h-3V0.6h6.4c2.2,0,3.9,0.5,5,1.6s1.7,2.5,1.7,4.4v7.2c0,1.9-0.6,3.4-1.7,4.4c-1.1,1-2.8,1.5-5,1.5h-3.4V28.2z
		 M56.7,13.8V6.6c0-1.1-0.3-1.9-1-2.5c-0.7-0.6-1.6-0.9-2.8-0.9h-3.4v14h3.4C55.4,17.2,56.7,16,56.7,13.8z"/>
	<path d="M79,22.9v-2.3h3v2.3c0,1.9-0.6,3.4-1.7,4.4c-1.2,1-2.9,1.5-5.2,1.5c-2.3,0-4.1-0.5-5.3-1.5c-1.2-1-1.8-2.5-1.8-4.4v-17
		c0-1.9,0.6-3.4,1.7-4.4S72.6,0,74.9,0c2.3,0,4.1,0.5,5.3,1.5c1.2,1,1.8,2.5,1.8,4.4v9.3h-11v7.6c0,2.3,1.3,3.4,4,3.4
		C77.6,26.3,79,25.2,79,22.9z M70.9,5.9v6.8H79V5.9c0-2.3-1.3-3.4-4-3.4C72.2,2.5,70.9,3.7,70.9,5.9z"/>
	<path d="M97.8,28.2h-4.2L89.6,0.6h3L96,23.9l4.5-23.3h3.2l4.5,23.3l3.5-23.3h3l-4.1,27.6h-4.2l-4.3-22L97.8,28.2z"/>
	<path d="M133.4,22.9v-2.3h3v2.3c0,1.9-0.6,3.4-1.7,4.4c-1.2,1-2.9,1.5-5.2,1.5c-2.3,0-4.1-0.5-5.3-1.5c-1.2-1-1.8-2.5-1.8-4.4v-17
		c0-1.9,0.6-3.4,1.7-4.4S127,0,129.3,0c2.3,0,4.1,0.5,5.3,1.5c1.2,1,1.8,2.5,1.8,4.4v9.3h-11v7.6c0,2.3,1.3,3.4,4,3.4
		C132,26.3,133.4,25.2,133.4,22.9z M125.3,5.9v6.8h8.1V5.9c0-2.3-1.3-3.4-4-3.4C126.7,2.5,125.3,3.7,125.3,5.9z"/>
	<path d="M159.5,28.2h-1.3l-1.1-2.7c-0.6,1-1.4,1.8-2.3,2.4c-1,0.6-2,0.9-3.2,0.9c-4.1,0-6.1-2-6.1-5.9v-4.2c0-4,2-5.9,6.1-5.9h4.9
		v-7c0-1-0.3-1.8-1-2.4c-0.7-0.6-1.6-0.8-2.9-0.8c-2.5,0-3.8,1.1-3.8,3.2v2.5h-3V5.9c0-1.9,0.6-3.4,1.7-4.4c1.1-1,2.8-1.5,5.1-1.5
		c2.3,0,4,0.5,5.1,1.5c1.1,1,1.7,2.5,1.7,4.4V28.2z M156.5,15.3h-4.9c-1.2,0-2,0.3-2.5,0.9c-0.5,0.6-0.7,1.4-0.7,2.5v4.2
		c0,1.1,0.2,1.9,0.7,2.5c0.5,0.6,1.3,0.9,2.5,0.9c1.2,0,2.3-0.5,3.3-1.4s1.6-1.8,1.6-2.7V15.3z"/>
	<path d="M172.6,28.2h-3V0.6h1.3l1.2,3.1c0.9-2.5,2.3-3.8,4.3-3.8c3.4,0,5,1.8,5,5.5v2.8h-2.8V5.3c0-1.9-0.8-2.8-2.3-2.8
		c-0.9,0-1.8,0.5-2.6,1.6c-0.8,1.1-1.2,2.6-1.2,4.7V28.2z"/>
</g>
<rect x="-136.8" y="86.2" fill="none" width="297.5" height="68.5"/>
<text transform="matrix(1 0 0 1 -136.7818 104.3569)" font-family="'UnicaOne-Regular'" font-size="28" letter-spacing="1">unica one font</text>
<g>
	<path d="M-1.7-73.1h-3.1v-28.7h3.1V-89H7v-12.8h3.1v28.7H7v-13.2h-8.7V-73.1z"/>
	<path d="M28.6-73.1h-3.1v-8.1c-4-0.4-6-2.5-6-6.1v-14.5h3.1v14.5c0,2.4,1.5,3.5,4.4,3.5c2.9,0,4.4-1.2,4.4-3.5v-14.5h3.1v14.5
		c0,3.6-2,5.6-5.9,6.1V-73.1z"/>
	<path d="M46.7-73.1h-3.1v-28.7h6.7c2.3,0,4,0.5,5.2,1.6c1.2,1.1,1.8,2.6,1.8,4.5v7.5c0,2-0.6,3.5-1.8,4.6c-1.2,1.1-2.9,1.6-5.2,1.6
		h-3.6V-73.1z M54.2-88.1v-7.5c0-1.1-0.3-2-1-2.6c-0.7-0.6-1.6-0.9-2.9-0.9h-3.6v14.5h3.6C52.9-84.6,54.2-85.8,54.2-88.1z"/>
	<path d="M77.3-78.6v-2.4h3.1v2.4c0,2-0.6,3.5-1.8,4.6c-1.2,1.1-3,1.6-5.4,1.6c-2.4,0-4.2-0.5-5.5-1.6c-1.2-1.1-1.9-2.6-1.9-4.6
		v-17.6c0-2,0.6-3.5,1.8-4.6c1.2-1.1,3-1.6,5.4-1.6c2.4,0,4.2,0.5,5.5,1.6c1.2,1.1,1.9,2.6,1.9,4.6v9.7H68.9v7.9
		c0,2.4,1.4,3.5,4.2,3.5C75.9-75.1,77.3-76.3,77.3-78.6z M68.9-96.3v7.1h8.4v-7.1c0-2.4-1.4-3.5-4.2-3.5
		C70.3-99.8,68.9-98.6,68.9-96.3z"/>
	<path d="M90.8-73.1v-28.7h3.1v26h8.1v2.6H90.8z"/>
	<path d="M112.5-73.1h-3.1v-28.7h3.1V-73.1z"/>
	<path d="M137.5-78.6c0,4.1-2.5,6.2-7.4,6.2c-5,0-7.4-2.1-7.4-6.2v-3.7h3.1v3.9c0,1.1,0.4,1.9,1.1,2.5c0.7,0.6,1.8,0.9,3.3,0.9
		c1.4,0,2.5-0.3,3.3-0.9c0.7-0.6,1.1-1.4,1.1-2.4c0-1-0.1-1.8-0.3-2.4c-0.2-0.6-0.7-1.2-1.3-1.9l-7.8-7.6c-0.9-0.9-1.5-1.8-1.9-2.7
		c-0.3-0.9-0.5-2-0.5-3.3c0-2,0.6-3.5,1.8-4.6c1.2-1.1,3.1-1.6,5.5-1.6c4.7,0,7.1,2.1,7.1,6.2v3.7H134v-3.9c0-1.1-0.3-1.9-1-2.5
		c-0.7-0.6-1.7-0.9-3.1-0.9c-1.4,0-2.4,0.3-3.1,0.9c-0.7,0.6-1,1.4-1,2.4s0.1,1.8,0.3,2.4c0.2,0.6,0.7,1.2,1.4,1.9l7.9,7.6
		c0.9,0.9,1.4,1.8,1.8,2.7C137.4-81.1,137.5-80,137.5-78.6z"/>
	<path d="M147-101.8h9.7v2.6h-6.6V-78c0,0.8,0.2,1.5,0.6,2.1s1,0.8,1.8,0.8s1.4-0.3,1.8-0.8c0.4-0.5,0.6-1.2,0.6-2.1v-5.2h3.1v5.1
		c0,1.9-0.5,3.3-1.5,4.3c-1,1-2.3,1.5-4,1.5c-1.7,0-3-0.5-4-1.5c-1-1-1.5-2.4-1.5-4.3V-101.8z"/>
</g>
</svg>
